<?xml version="1.0" encoding="UTF-8" standalone="no"?>
<svg
   xmlns:dc="http://purl.org/dc/elements/1.1/"
   xmlns:cc="http://creativecommons.org/ns#"
   xmlns:rdf="http://www.w3.org/1999/02/22-rdf-syntax-ns#"
   xmlns:svg="http://www.w3.org/2000/svg"
   xmlns="http://www.w3.org/2000/svg"
   id="svg50"
   xml:space="preserve"
   viewBox="0 0 1024 768"
   y="0px"
   x="0px"
   version="1.1"><metadata
     id="metadata56"><rdf:RDF><cc:Work
         rdf:about=""><dc:format>image/svg+xml</dc:format><dc:type
           rdf:resource="http://purl.org/dc/dcmitype/StillImage" /></cc:Work></rdf:RDF></metadata><defs
     id="defs54" /><g
     transform="matrix(0.87799,0,0,0.87799,79.151,-3.8326)"
     id="logo-group"><path
       stroke-miterlimit="2"
       d="m 31.719,542.3 v 27.821 h 5.5568 v -29.66 z"
       style="font-variant-ligatures:none;fill:#a67a42;stroke-width:0;stroke-miterlimit:2"
       id="path723895" /><path
       stroke-miterlimit="2"
       d="m 46.453,550.72 v 19.394 h 5.5568 V 548.88 Z"
       style="font-variant-ligatures:none;fill:#a67a42;stroke-width:0;stroke-miterlimit:2"
       id="path723897" /><path
       stroke-miterlimit="2"
       d="m 81.832,559.85 c 0,-1.3984 -0.2576,-2.7968 -0.8096,-4.0848 -0.552,-1.2512 -1.288,-2.3552 -2.2448,-3.312 -0.9568,-0.9936 -2.0976,-1.7296 -3.3488,-2.2448 -1.288,-0.552 -2.6496,-0.8464 -4.0848,-0.8464 -1.3984,0 -2.7968,0.2944 -4.0848,0.8464 -0.2944,0.1104 -0.5888,0.2576 -0.8832,0.4048 v -10.451 l -5.52,1.84 v 17.848 c 0,1.4352 0.2944,2.7968 0.8096,4.0848 0.552,1.2512 1.288,2.392 2.2448,3.3488 0.9936,0.9568 2.0976,1.7296 3.3488,2.2448 1.288,0.552 2.6864,0.8096 4.0848,0.8096 1.3984,0 2.7968,-0.2576 4.0848,-0.8096 1.2512,-0.552 2.3552,-1.288 3.3488,-2.2448 0.9568,-0.9568 1.6928,-2.0976 2.2448,-3.3488 0.552,-1.288 0.8096,-2.6496 0.8096,-4.0848 z m -5.52,0 c 0,2.76 -2.2448,4.968 -4.968,4.968 -2.7232,0 -4.968,-2.208 -4.968,-4.968 0,-2.7232 2.2448,-4.968 4.968,-4.968 2.7232,0 4.968,2.2448 4.968,4.968 z"
       style="font-variant-ligatures:none;fill:#a67a42;stroke-width:0;stroke-miterlimit:2"
       id="path723899" /><path
       stroke-miterlimit="2"
       d="m 98.007,570.23 c 1.472,0 2.8704,-0.2944 4.1952,-0.8464 1.2512,-0.5888 2.392,-1.3616 3.3488,-2.392 l -3.864,-3.68 c -0.9568,1.0304 -2.2816,1.5824 -3.68,1.5824 -1.8032,0 -3.3488,-0.92 -4.2688,-2.3552 h 14.646 v -2.6496 c 0,-2.7968 -1.0672,-5.3728 -3.0544,-7.36 -1.9504,-1.9504 -4.5632,-3.0176 -7.3232,-3.0176 -2.76,0 -5.3728,1.0672 -7.3232,3.0176 -1.9504,1.9872 -3.0544,4.5632 -3.0544,7.36 0,2.76 1.104,5.3728 3.0544,7.3232 1.9504,1.9504 4.5632,3.0176 7.3232,3.0176 z m 4.2688,-13.027 h -8.5376 c 0.92,-1.3984 2.4656,-2.3552 4.2688,-2.3552 1.8032,0 3.3856,0.9568 4.2688,2.3552 z"
       style="font-variant-ligatures:none;fill:#a67a42;stroke-width:0;stroke-miterlimit:2"
       id="path723901" /><path
       stroke-miterlimit="2"
       d="m 115.38,561.06 v 9.0528 h 5.52 V 561.06 c 0,-3.5696 2.9072,-6.44 6.44,-6.44 v -5.52 c -1.6192,0 -3.1648,0.2944 -4.6368,0.92 -1.4352,0.6256 -2.7232,1.472 -3.7904,2.576 -1.104,1.104 -1.9872,2.392 -2.576,3.7904 -0.6256,1.472 -0.9568,3.0544 -0.95681,4.6736 z"
       style="font-variant-ligatures:none;fill:#a67a42;stroke-width:0;stroke-miterlimit:2"
       id="path723903" /><path
       stroke-miterlimit="2"
       d="m 140.06,559.11 v -4.3424 h 5.8512 v -5.152 H 140.06 v -6.5872 l -5.52,1.84 v 14.242 c 0,1.5456 0.2944,3.0544 0.8832,4.4528 0.5888,1.3616 1.3984,2.576 2.4656,3.6064 1.0304,1.0304 2.2448,1.8768 3.6064,2.4288 1.3984,0.5888 2.8704,0.8832 4.416,0.8832 v -5.52 c -3.2384,0 -5.8512,-2.6128 -5.8512,-5.8512 z"
       style="font-variant-ligatures:none;fill:#a67a42;stroke-width:0;stroke-miterlimit:2"
       id="path723905" /><path
       stroke-miterlimit="2"
       d="m 161.04,570.23 c 1.472,0 2.8704,-0.2944 4.1952,-0.8464 1.2512,-0.5888 2.392,-1.3616 3.3488,-2.392 l -3.864,-3.68 c -0.9568,1.0304 -2.2816,1.5824 -3.68,1.5824 -1.8032,0 -3.3488,-0.92 -4.2688,-2.3552 h 14.646 v -2.6496 c 0,-2.7968 -1.0672,-5.3728 -3.0544,-7.36 -1.9504,-1.9504 -4.5632,-3.0176 -7.3232,-3.0176 -2.76,0 -5.3728,1.0672 -7.3232,3.0176 -1.9504,1.9872 -3.0544,4.5632 -3.0544,7.36 0,2.76 1.104,5.3728 3.0544,7.3232 1.9504,1.9504 4.5632,3.0176 7.3232,3.0176 z m 4.2688,-13.027 h -8.5376 c 0.91999,-1.3984 2.4656,-2.3552 4.2688,-2.3552 1.8032,0 3.3856,0.9568 4.2688,2.3552 z m -0.5152,-14.61 -3.3488,0.0368 -4.3424,5.1888 h 3.128 z"
       style="font-variant-ligatures:none;fill:#a67a42;stroke-width:0;stroke-miterlimit:2"
       id="path723907" /><path
       stroke-miterlimit="2"
       d="m 187.44,570.34 h 8.6112 c 3.7168,0 6.7344,-3.0176 6.7344,-6.7344 0,-3.7168 -3.0176,-6.7712 -6.7344,-6.7712 h -1.5456 c -0.51519,0 -0.95679,-0.4048 -0.95679,-0.9568 0,-0.5152 0.4416,-0.9568 0.95679,-0.9568 h 7.6912 v -5.7776 h -7.6912 c -3.7168,0 -6.7344,3.0176 -6.7344,6.7344 0,3.7168 3.0176,6.7344 6.7344,6.7344 h 1.5456 c 0.5152,0 0.9568,0.4416 0.9568,0.9936 0,0.5152 -0.4048,0.9568 -0.9568,0.9568 H 187.44 Z"
       style="font-variant-ligatures:none;fill:#a67a42;stroke-width:0;stroke-miterlimit:2"
       id="path723909" /><path
       stroke-miterlimit="2"
       d="m 218.97,570.23 c 1.472,0 2.8704,-0.2944 4.1952,-0.8464 1.2512,-0.5888 2.392,-1.3616 3.3488,-2.392 l -3.864,-3.68 c -0.9568,1.0304 -2.2816,1.5824 -3.68,1.5824 -1.8032,0 -3.3488,-0.92 -4.2688,-2.3552 h 14.646 v -2.6496 c 0,-2.7968 -1.0672,-5.3728 -3.0544,-7.36 -1.9504,-1.9504 -4.5632,-3.0176 -7.3232,-3.0176 -2.76,0 -5.3728,1.0672 -7.3232,3.0176 -1.9504,1.9872 -3.0544,4.5632 -3.0544,7.36 0,2.76 1.104,5.3728 3.0544,7.3232 1.9504,1.9504 4.5632,3.0176 7.3232,3.0176 z m 4.27,-13.03 h -8.5376 c 0.92,-1.3984 2.4656,-2.3552 4.2688,-2.3552 1.8032,0 3.3856,0.9568 4.2688,2.3552 z m -0.51519,-14.61 -3.3488,0.0368 -4.3424,5.1888 h 3.128 z"
       style="font-variant-ligatures:none;fill:#a67a42;stroke-width:0;stroke-miterlimit:2"
       id="path723911" /><path
       stroke-miterlimit="2"
       d="m 236.34,561.06 v 9.0528 h 5.52 V 561.06 c 0,-3.5696 2.9072,-6.44 6.44,-6.44 v -5.52 c -1.6192,0 -3.1648,0.2944 -4.6368,0.92 -1.4352,0.6256 -2.7232,1.472 -3.7904,2.576 -1.104,1.104 -1.9872,2.392 -2.576,3.7904 -0.6256,1.472 -0.9568,3.0544 -0.9568,4.6736 z"
       style="font-variant-ligatures:none;fill:#a67a42;stroke-width:0;stroke-miterlimit:2"
       id="path723913" /><path
       stroke-miterlimit="2"
       d="m 263.25,570.23 c 1.472,0 2.8704,-0.2944 4.1952,-0.8464 1.2512,-0.5888 2.392,-1.3616 3.3488,-2.392 l -3.864,-3.68 c -0.95681,1.0304 -2.2816,1.5824 -3.68,1.5824 -1.8032,0 -3.3488,-0.92 -4.2688,-2.3552 h 14.646 v -2.6496 c 0,-2.7968 -1.0672,-5.3728 -3.0544,-7.36 -1.9504,-1.9504 -4.5632,-3.0176 -7.3232,-3.0176 -2.76,0 -5.3728,1.0672 -7.3232,3.0176 -1.9504,1.9872 -3.0544,4.5632 -3.0544,7.36 0,2.76 1.104,5.3728 3.0544,7.3232 1.9504,1.9504 4.5632,3.0176 7.3232,3.0176 z m 4.27,-13.03 h -8.5376 c 0.91999,-1.3984 2.4656,-2.3552 4.2688,-2.3552 1.8032,0 3.3856,0.9568 4.2688,2.3552 z m -0.51521,-14.61 -3.3488,0.0368 -4.3424,5.1888 h 3.128 z"
       style="font-variant-ligatures:none;fill:#a67a42;stroke-width:0;stroke-miterlimit:2"
       id="path723915" /><path
       stroke-miterlimit="2"
       d="m 296.44,552.67 c -1.7296,-1.7664 -4.0848,-2.7232 -6.5504,-2.7232 -1.288,0 -2.576,0.2576 -3.7168,0.7728 v -1.3248 h -5.52 v 9.016 c -0.0368,0.2576 -0.0368,0.552 -0.0368,0.8096 h 0.0368 v 10.893 h 5.52 v -11.408 c 0.2576,-1.84 1.84,-3.2384 3.7168,-3.2384 2.0608,0 3.7536,1.6928 3.7536,3.7536 v 10.893 h 5.52 v -10.9 c 0,-2.4656 -0.9568,-4.784 -2.7232,-6.5504 z"
       style="font-variant-ligatures:none;fill:#a67a42;stroke-width:0;stroke-miterlimit:2"
       id="path723917" /><path
       stroke-miterlimit="2"
       d="m 307.79,550.72 v 19.394 h 5.5568 V 548.88 Z"
       style="font-variant-ligatures:none;fill:#a67a42;stroke-width:0;stroke-miterlimit:2"
       id="path723919" /><path
       stroke-miterlimit="2"
       d="m 328.23,559.11 v -4.3424 h 5.8512 v -5.152 H 328.23 v -6.5872 l -5.52,1.84 v 14.242 c 0,1.5456 0.2944,3.0544 0.8832,4.4528 0.5888,1.3616 1.3984,2.576 2.4656,3.6064 1.0304,1.0304 2.2448,1.8768 3.6064,2.4288 1.3984,0.5888 2.8704,0.8832 4.416,0.8832 v -5.52 c -3.2384,0 -5.8512,-2.6128 -5.8512,-5.8512 z"
       style="font-variant-ligatures:none;fill:#a67a42;stroke-width:0;stroke-miterlimit:2"
       id="path723921" /><path
       stroke-miterlimit="2"
       d="m 349.21,570.23 c 1.472,0 2.8704,-0.2944 4.1952,-0.8464 1.2512,-0.5888 2.392,-1.3616 3.3488,-2.392 l -3.864,-3.68 c -0.9568,1.0304 -2.2816,1.5824 -3.68,1.5824 -1.8032,0 -3.3488,-0.92 -4.2688,-2.3552 h 14.646 v -2.6496 c 0,-2.7968 -1.0672,-5.3728 -3.0544,-7.36 -1.9504,-1.9504 -4.5632,-3.0176 -7.3232,-3.0176 -2.76,0 -5.3728,1.0672 -7.3232,3.0176 -1.9504,1.9872 -3.0544,4.5632 -3.0544,7.36 0,2.76 1.104,5.3728 3.0544,7.3232 1.9504,1.9504 4.5632,3.0176 7.3232,3.0176 z m 4.2688,-13.027 h -8.5376 c 0.92,-1.3984 2.4656,-2.3552 4.2688,-2.3552 1.8032,0 3.3856,0.9568 4.2688,2.3552 z m -0.5152,-14.61 -3.3488,0.0368 -4.3424,5.1888 h 3.128 z"
       style="font-variant-ligatures:none;fill:#a67a42;stroke-width:0;stroke-miterlimit:2"
       id="path723923" /><path
       stroke-miterlimit="2"
       d="m 376.79,542.3 v 27.821 h 5.5568 v -29.66 z"
       style="font-variant-ligatures:none;fill:#a67a42;stroke-width:0;stroke-miterlimit:2"
       id="path723925" /><path
       stroke-miterlimit="2"
       d="m 391.52,550.72 v 19.394 h 5.5568 V 548.88 Z"
       style="font-variant-ligatures:none;fill:#a67a42;stroke-width:0;stroke-miterlimit:2"
       id="path723927" /><path
       stroke-miterlimit="2"
       d="m 413.8,562.5 4.8944,7.6176 h 6.4768 l -7.5072,-11.666 7.9856,-8.832 h -7.1024 l -6.9552,7.7648 v -16.928 h -5.5568 v 29.661 h 5.5568 v -5.2256 z"
       style="font-variant-ligatures:none;fill:#a67a42;stroke-width:0;stroke-miterlimit:2"
       id="path723929" /><path
       stroke-miterlimit="2"
       d="m 439.39,570.34 c 1.3984,0 2.76,-0.2576 4.0848,-0.8096 1.2512,-0.5152 2.3552,-1.288 3.312,-2.2448 0.9568,-0.9568 1.7296,-2.0976 2.2448,-3.3488 0.552,-1.288 0.8464,-2.6496 0.8464,-4.0848 0,-1.3984 -0.2944,-2.76 -0.8464,-4.0848 -0.5152,-1.2512 -1.288,-2.3552 -2.2448,-3.312 -0.9568,-0.9568 -2.0976,-1.7296 -3.312,-2.2448 -1.3248,-0.552 -2.6864,-0.8464 -4.0848,-0.8464 -1.4352,0 -2.7968,0.2944 -4.0848,0.8464 -1.2512,0.5152 -2.392,1.288 -3.3488,2.2448 -0.9568,0.9568 -1.7296,2.0976 -2.2448,3.312 -0.552,1.3248 -0.8096,2.6864 -0.8096,4.0848 0,1.4352 0.2576,2.7968 0.8096,4.0848 0.5152,1.2512 1.288,2.392 2.2448,3.3488 0.9568,0.9568 2.0976,1.7296 3.3488,2.2448 1.288,0.552 2.6496,0.8096 4.0848,0.8096 z m 0,-15.456 c 2.7232,0 4.968,2.2448 4.968,4.968 0,2.76 -2.2448,4.968 -4.968,4.968 -2.76,0 -4.968,-2.208 -4.968,-4.968 0,-2.7232 2.208,-4.968 4.968,-4.968 z"
       style="font-variant-ligatures:none;fill:#a67a42;stroke-width:0;stroke-miterlimit:2"
       id="path723931" /><path
       stroke-miterlimit="2"
       d="m 484.92,552.31 c -1.6928,-1.6928 -3.9008,-2.6128 -6.256,-2.6128 -2.3184,0 -4.4528,0.8832 -6.1088,2.4288 -1.656,-1.5456 -3.7904,-2.4288 -6.072,-2.4288 -1.1776,0 -2.3184,0.2208 -3.3488,0.6624 v -0.9568 h -5.52 v 20.718 h 5.52 v -11.555 c 0,-1.84 1.5088,-3.3488 3.3488,-3.3488 1.8032,0 3.312,1.5088 3.312,3.3488 v 11.555 h 5.52 v -11.555 c 0,-1.84 1.5088,-3.3488 3.3488,-3.3488 1.8032,0 3.312,1.5088 3.312,3.3488 v 11.555 h 5.52 v -11.555 c 0,-2.3552 -0.92,-4.6 -2.576,-6.256 z"
       style="font-variant-ligatures:none;fill:#a67a42;stroke-width:0;stroke-miterlimit:2"
       id="path723933" /><path
       stroke-miterlimit="2"
       d="m 504.6,570.23 c 1.472,0 2.8704,-0.2944 4.1952,-0.8464 1.2512,-0.5888 2.392,-1.3616 3.3488,-2.392 l -3.864,-3.68 c -0.9568,1.0304 -2.2816,1.5824 -3.68,1.5824 -1.8032,0 -3.3488,-0.92 -4.2688,-2.3552 h 14.646 v -2.6496 c 0,-2.7968 -1.0672,-5.3728 -3.0544,-7.36 -1.9504,-1.9504 -4.5632,-3.0176 -7.3232,-3.0176 -2.76,0 -5.3728,1.0672 -7.3232,3.0176 -1.9504,1.9872 -3.0544,4.5632 -3.0544,7.36 0,2.76 1.104,5.3728 3.0544,7.3232 1.9504,1.9504 4.5632,3.0176 7.3232,3.0176 z m 4.2688,-13.027 h -8.5376 c 0.92,-1.3984 2.4656,-2.3552 4.2688,-2.3552 1.8032,0 3.3856,0.9568 4.2688,2.3552 z"
       style="font-variant-ligatures:none;fill:#a67a42;stroke-width:0;stroke-miterlimit:2"
       id="path723935" /><path
       stroke-miterlimit="2"
       d="m 540.69,570.23 c 1.472,0 2.8704,-0.2944 4.1952,-0.8464 1.2512,-0.5888 2.392,-1.3616 3.3488,-2.392 l -3.864,-3.68 c -0.9568,1.0304 -2.2816,1.5824 -3.68,1.5824 -1.8032,0 -3.3488,-0.92 -4.2688,-2.3552 h 14.646 v -2.6496 c 0,-2.7968 -1.0672,-5.3728 -3.0544,-7.36 -1.9504,-1.9504 -4.5632,-3.0176 -7.3232,-3.0176 -2.76,0 -5.3728,1.0672 -7.3232,3.0176 -1.9504,1.9872 -3.0544,4.5632 -3.0544,7.36 0,2.76 1.104,5.3728 3.0544,7.3232 1.9504,1.9504 4.5632,3.0176 7.3232,3.0176 z m 4.2688,-13.027 h -8.5376 c 0.92,-1.3984 2.4656,-2.3552 4.2688,-2.3552 1.8032,0 3.3856,0.9568 4.2688,2.3552 z"
       style="font-variant-ligatures:none;fill:#a67a42;stroke-width:0;stroke-miterlimit:2"
       id="path723937" /><path
       stroke-miterlimit="2"
       d="m 573.88,552.67 c -1.7296,-1.7664 -4.0848,-2.7232 -6.5504,-2.7232 -1.288,0 -2.576,0.2576 -3.7168,0.7728 v -1.3248 h -5.52 v 9.016 c -0.0368,0.2576 -0.0368,0.552 -0.0368,0.8096 h 0.0368 v 10.893 h 5.52 v -11.408 c 0.2576,-1.84 1.84,-3.2384 3.7168,-3.2384 2.0608,0 3.7536,1.6928 3.7536,3.7536 v 10.893 h 5.52 v -10.9 c 0,-2.4656 -0.9568,-4.784 -2.7232,-6.5504 z"
       style="font-variant-ligatures:none;fill:#a67a42;stroke-width:0;stroke-miterlimit:2"
       id="path723939" /><path
       stroke-miterlimit="2"
       d="m 606.74,549.66 h -5.8512 c 0,-3.2384 2.6128,-5.8512 5.8512,-5.8512 v -5.52 c -1.5456,0 -3.0176,0.2944 -4.416,0.8832 -1.3616,0.5888 -2.576,1.3984 -3.6064,2.4288 -1.0672,1.0672 -1.8768,2.2816 -2.4656,3.6432 -0.5888,1.3984 -0.8832,2.8704 -0.8832,4.416 v 20.461 h 5.52 v -15.31 h 5.8512 z"
       style="font-variant-ligatures:none;fill:#a67a42;stroke-width:0;stroke-miterlimit:2"
       id="path723941" /><path
       stroke-miterlimit="2"
       d="m 632.08,549.4 h -5.52 v 1.1408 c -1.4352,-0.736 -3.0544,-1.1408 -4.7104,-1.1408 -1.4352,0 -2.7968,0.2944 -4.0848,0.8464 -1.2512,0.5152 -2.392,1.288 -3.3488,2.2448 -0.9568,0.9568 -1.7296,2.0608 -2.2448,3.312 -0.552,1.3248 -0.8096,2.6864 -0.8096,4.0848 0,1.4352 0.2576,2.7968 0.8096,4.0848 0.5152,1.2512 1.288,2.392 2.2448,3.3488 0.9568,0.9568 2.0976,1.7296 3.3488,2.2448 1.288,0.552 2.6496,0.8096 4.0848,0.8096 1.6192,0 3.2752,-0.368 4.7104,-1.104 v 0.8464 h 5.52 z m -7.728,14.794 c -0.7728,0.4416 -1.6192,0.6624 -2.5024,0.6624 -2.76,0 -4.968,-2.208 -4.968,-4.968 0,-2.7232 2.208,-4.968 4.968,-4.968 0.9568,0 1.8768,0.2944 2.6864,0.8096 0.7728,0.5152 1.3984,1.2144 1.8032,2.0608 0.2944,0.6624 0.4416,1.3616 0.4416,2.1344 0,0.8464 -0.2208,1.7296 -0.6624,2.4656 -0.4048,0.736 -1.0304,1.3616 -1.7664,1.8032 z"
       style="font-variant-ligatures:none;fill:#a67a42;stroke-width:0;stroke-miterlimit:2"
       id="path723943" /><path
       stroke-miterlimit="2"
       d="m 640.72,550.72 v 19.394 h 5.5568 V 548.88 Z"
       style="font-variant-ligatures:none;fill:#a67a42;stroke-width:0;stroke-miterlimit:2"
       id="path723945" /><path
       stroke-miterlimit="2"
       d="m 661.15,559.11 v -4.3424 h 5.8512 v -5.152 H 661.15 v -6.5872 l -5.52,1.84 v 14.242 c 0,1.5456 0.2944,3.0544 0.8832,4.4528 0.5888,1.3616 1.3984,2.576 2.4656,3.6064 1.0304,1.0304 2.2448,1.8768 3.6064,2.4288 1.3984,0.5888 2.8704,0.8832 4.416,0.8832 v -5.52 c -3.2384,0 -5.8512,-2.6128 -5.8512,-5.8512 z"
       style="font-variant-ligatures:none;fill:#a67a42;stroke-width:0;stroke-miterlimit:2"
       id="path723947" /><path
       stroke-miterlimit="2"
       d="m 683.31,570.34 h 8.6112 c 3.7168,0 6.7344,-3.0176 6.7344,-6.7344 0,-3.7168 -3.0176,-6.7712 -6.7344,-6.7712 h -1.5456 c -0.5152,0 -0.9568,-0.4048 -0.9568,-0.9568 0,-0.5152 0.4416,-0.9568 0.9568,-0.9568 h 7.6912 v -5.7776 h -7.6912 c -3.7168,0 -6.7344,3.0176 -6.7344,6.7344 0,3.7168 3.0176,6.7344 6.7344,6.7344 h 1.5456 c 0.5152,0 0.9568,0.4416 0.9568,0.9936 0,0.5152 -0.4048,0.9568 -0.9568,0.9568 H 683.31 Z"
       style="font-variant-ligatures:none;fill:#a67a42;stroke-width:0;stroke-miterlimit:2"
       id="path723949" /><path
       stroke-miterlimit="2"
       d="m 725.23,549.4 h -5.52 v 1.1408 c -1.4352,-0.736 -3.0544,-1.1408 -4.7104,-1.1408 -1.4352,0 -2.7968,0.2944 -4.0848,0.8464 -1.2512,0.5152 -2.392,1.288 -3.3488,2.2448 -0.9568,0.9568 -1.7296,2.0608 -2.2448,3.312 -0.552,1.3248 -0.8096,2.6864 -0.8096,4.0848 0,1.4352 0.2576,2.7968 0.8096,4.0848 0.5152,1.2512 1.288,2.392 2.2448,3.3488 0.9568,0.9568 2.0976,1.7296 3.3488,2.2448 1.288,0.552 2.6496,0.8096 4.0848,0.8096 1.6192,0 3.2752,-0.368 4.7104,-1.104 v 0.8464 h 5.52 z m -7.728,14.794 c -0.7728,0.4416 -1.6192,0.6624 -2.5024,0.6624 -2.76,0 -4.968,-2.208 -4.968,-4.968 0,-2.7232 2.208,-4.968 4.968,-4.968 0.9568,0 1.8768,0.2944 2.6864,0.8096 0.7728,0.5152 1.3984,1.2144 1.8032,2.0608 0.2944,0.6624 0.4416,1.3616 0.4416,2.1344 0,0.8464 -0.2208,1.7296 -0.6624,2.4656 -0.4048,0.736 -1.0304,1.3616 -1.7664,1.8032 z"
       style="font-variant-ligatures:none;fill:#a67a42;stroke-width:0;stroke-miterlimit:2"
       id="path723951" /><path
       stroke-miterlimit="2"
       d="m 742.68,570.34 h 8.6112 c 3.7168,0 6.7344,-3.0176 6.7344,-6.7344 0,-3.7168 -3.0176,-6.7712 -6.7344,-6.7712 h -1.5456 c -0.5152,0 -0.9568,-0.4048 -0.9568,-0.9568 0,-0.5152 0.4416,-0.9568 0.9568,-0.9568 h 7.6912 v -5.7776 h -7.6912 c -3.7168,0 -6.7344,3.0176 -6.7344,6.7344 0,3.7168 3.0176,6.7344 6.7344,6.7344 h 1.5456 c 0.5152,0 0.9568,0.4416 0.9568,0.9936 0,0.5152 -0.4048,0.9568 -0.9568,0.9568 H 742.68 Z"
       style="font-variant-ligatures:none;fill:#a67a42;stroke-width:0;stroke-miterlimit:2"
       id="path723953" /><path
       stroke-miterlimit="2"
       d="m 785.5,555.8 c -0.5152,-1.2144 -1.288,-2.3552 -2.2448,-3.312 -0.9568,-0.9568 -2.0608,-1.7296 -3.312,-2.2448 -1.3248,-0.552 -2.6864,-0.8464 -4.0848,-0.8464 -1.4352,0 -2.7968,0.2944 -4.0848,0.8464 -1.2512,0.5152 -2.392,1.288 -3.3488,2.2448 -0.9568,0.9568 -1.7296,2.0608 -2.2448,3.312 -0.552,1.3248 -0.8096,2.6864 -0.8096,4.0848 v 15.677 l 5.52,1.84 v -8.28 c 0.2576,0.184 0.552,0.2944 0.8832,0.4416 1.288,0.552 2.6496,0.8096 4.0848,0.8096 1.3984,0 2.76,-0.2576 4.0848,-0.8096 1.2144,-0.5152 2.3552,-1.288 3.312,-2.2448 0.9568,-0.9568 1.7296,-2.0976 2.2448,-3.3488 0.552,-1.288 0.8464,-2.6496 0.8464,-4.0848 0,-1.3984 -0.2944,-2.76 -0.8464,-4.0848 z m -9.6416,9.0528 c -2.76,0 -4.968,-2.208 -4.968,-4.968 0,-2.7232 2.208,-4.968 4.968,-4.968 2.7232,0 4.968,2.2448 4.968,4.968 0,2.76 -2.2448,4.968 -4.968,4.968 z"
       style="font-variant-ligatures:none;fill:#a67a42;stroke-width:0;stroke-miterlimit:2"
       id="path723955" /><path
       stroke-miterlimit="2"
       d="m 802.53,570.23 c 1.472,0 2.8704,-0.2944 4.1952,-0.8464 1.2512,-0.5888 2.392,-1.3616 3.3488,-2.392 l -3.864,-3.68 c -0.9568,1.0304 -2.2816,1.5824 -3.68,1.5824 -1.8032,0 -3.3488,-0.92 -4.2688,-2.3552 h 14.646 v -2.6496 c 0,-2.7968 -1.0672,-5.3728 -3.0544,-7.36 -1.9504,-1.9504 -4.5632,-3.0176 -7.3232,-3.0176 -2.76,0 -5.3728,1.0672 -7.3232,3.0176 -1.9504,1.9872 -3.0544,4.5632 -3.0544,7.36 0,2.76 1.104,5.3728 3.0544,7.3232 1.9504,1.9504 4.5632,3.0176 7.3232,3.0176 z m 4.2688,-13.027 h -8.5376 c 0.92,-1.3984 2.4656,-2.3552 4.2688,-2.3552 1.8032,0 3.3856,0.9568 4.2688,2.3552 z m -0.5152,-14.61 -3.3488,0.0368 -4.3424,5.1888 h 3.128 z"
       style="font-variant-ligatures:none;fill:#a67a42;stroke-width:0;stroke-miterlimit:2"
       id="path723957" /><path
       stroke-miterlimit="2"
       d="m 829.28,570.37 c 3.4592,0 6.6976,-1.6928 8.648,-4.5264 l -4.5632,-3.128 c -0.92,1.3248 -2.4288,2.1344 -4.0848,2.1344 -2.7232,0 -4.968,-2.208 -4.968,-4.968 0,-2.7232 2.2448,-4.968 4.968,-4.968 1.6192,0 3.128,0.8096 4.0848,2.1344 l 4.4896,-3.2016 c -0.9568,-1.3248 -2.208,-2.4656 -3.68,-3.2384 -1.472,-0.7728 -3.2016,-1.2144 -4.8944,-1.2144 -1.3984,0 -2.7968,0.2944 -4.0848,0.8464 -1.2512,0.5152 -2.3552,1.288 -3.3488,2.2448 -0.9568,0.9568 -1.6928,2.0976 -2.2448,3.312 -0.5152,1.3248 -0.8096,2.6864 -0.8096,4.0848 0,1.4352 0.2944,2.7968 0.8096,4.0848 0.552,1.2512 1.288,2.392 2.2448,3.3488 0.9936,0.9568 2.0976,1.7296 3.3488,2.2448 1.288,0.552 2.6864,0.8096 4.0848,0.8096 z"
       style="font-variant-ligatures:none;fill:#a67a42;stroke-width:0;stroke-miterlimit:2"
       id="path723959" /><path
       stroke-miterlimit="2"
       d="m 845.06,550.72 v 19.394 h 5.5568 V 548.88 Z"
       style="font-variant-ligatures:none;fill:#a67a42;stroke-width:0;stroke-miterlimit:2"
       id="path723961" /><path
       stroke-miterlimit="2"
       d="m 879.11,549.4 h -5.52 v 1.1408 c -1.4352,-0.736 -3.0544,-1.1408 -4.7104,-1.1408 -1.4352,0 -2.7968,0.2944 -4.0848,0.8464 -1.2512,0.5152 -2.392,1.288 -3.3488,2.2448 -0.9568,0.9568 -1.7296,2.0608 -2.2448,3.312 -0.552,1.3248 -0.8096,2.6864 -0.8096,4.0848 0,1.4352 0.2576,2.7968 0.8096,4.0848 0.5152,1.2512 1.288,2.392 2.2448,3.3488 0.9568,0.9568 2.0976,1.7296 3.3488,2.2448 1.288,0.552 2.6496,0.8096 4.0848,0.8096 1.6192,0 3.2752,-0.368 4.7104,-1.104 v 0.8464 h 5.52 z m -7.728,14.794 c -0.7728,0.4416 -1.6192,0.6624 -2.5024,0.6624 -2.76,0 -4.968,-2.208 -4.968,-4.968 0,-2.7232 2.208,-4.968 4.968,-4.968 0.9568,0 1.8768,0.2944 2.6864,0.8096 0.7728,0.5152 1.3984,1.2144 1.8032,2.0608 0.2944,0.6624 0.4416,1.3616 0.4416,2.1344 0,0.8464 -0.2208,1.7296 -0.6624,2.4656 -0.4048,0.736 -1.0304,1.3616 -1.7664,1.8032 z"
       style="font-variant-ligatures:none;fill:#a67a42;stroke-width:0;stroke-miterlimit:2"
       id="path723963" /><path
       stroke-miterlimit="2"
       d="m 887.75,542.3 v 27.821 h 5.5568 v -29.66 z"
       style="font-variant-ligatures:none;fill:#a67a42;stroke-width:0;stroke-miterlimit:2"
       id="path723965" /><path
       stroke-miterlimit="2"
       d="m 902.48,550.72 v 19.394 h 5.5568 V 548.88 Z"
       style="font-variant-ligatures:none;fill:#a67a42;stroke-width:0;stroke-miterlimit:2"
       id="path723967" /><path
       stroke-miterlimit="2"
       d="m 922.92,559.11 v -4.3424 h 5.8512 v -5.152 H 922.92 v -6.5872 l -5.52,1.84 v 14.242 c 0,1.5456 0.2944,3.0544 0.8832,4.4528 0.5888,1.3616 1.3984,2.576 2.4656,3.6064 1.0304,1.0304 2.2448,1.8768 3.6064,2.4288 1.3984,0.5888 2.8704,0.8832 4.416,0.8832 v -5.52 c -3.2384,0 -5.8512,-2.6128 -5.8512,-5.8512 z"
       style="font-variant-ligatures:none;fill:#a67a42;stroke-width:0;stroke-miterlimit:2"
       id="path723969" /><path
       stroke-miterlimit="2"
       d="m 943.9,570.23 c 1.472,0 2.8704,-0.2944 4.1952,-0.8464 1.2512,-0.5888 2.392,-1.3616 3.3488,-2.392 l -3.864,-3.68 c -0.9568,1.0304 -2.2816,1.5824 -3.68,1.5824 -1.8032,0 -3.3488,-0.92 -4.2688,-2.3552 h 14.646 v -2.6496 c 0,-2.7968 -1.0672,-5.3728 -3.0544,-7.36 -1.9504,-1.9504 -4.5632,-3.0176 -7.3232,-3.0176 -2.76,0 -5.3728,1.0672 -7.3232,3.0176 -1.9504,1.9872 -3.0544,4.5632 -3.0544,7.36 0,2.76 1.104,5.3728 3.0544,7.3232 1.9504,1.9504 4.5632,3.0176 7.3232,3.0176 z m 4.2688,-13.027 h -8.5376 c 0.92,-1.3984 2.4656,-2.3552 4.2688,-2.3552 1.8032,0 3.3856,0.9568 4.2688,2.3552 z m -0.5152,-14.61 -3.3488,0.0368 -4.3424,5.1888 h 3.128 z"
       style="font-variant-ligatures:none;fill:#a67a42;stroke-width:0;stroke-miterlimit:2"
       id="path723971" /><path
       stroke-miterlimit="2"
       class="c1"
       d="m 31.719,321.46 39.566,-12.6 v 159.03 h 88.46 v 37.55 H 31.725 Z"
       style="font-variant-ligatures:normal;fill:#323230;stroke-width:0;stroke-miterlimit:2"
       id="path51" /><path
       stroke-miterlimit="2"
       class="c1"
       d="M 209.59,360.01 V 505.43 H 171.53 V 372.61 Z"
       style="font-variant-ligatures:normal;fill:#323230;stroke-width:0;stroke-miterlimit:2"
       id="path54" /><path
       id="polygon57"
       d="M 108.1,71.917 88.482,95.622 V 71.917 H 77.177 V 128.08 H 88.482 V 112.31 L 122.8,71.917 Z"
       style="font-variant-ligatures:normal;fill:#323230;stroke-width:0;stroke-miterlimit:2"
       transform="matrix(3.5,0,0,3.5,-34.506,57.146)" /><path
       id="polygon59"
       d="M 112.71,114.24 H 98.673 l 10.057,13.84 h 14.09 z"
       style="font-variant-ligatures:normal;fill:#a67a42;stroke-width:0;stroke-miterlimit:2"
       transform="matrix(3.5,0,0,3.5,-34.506,57.146)" /><path
       stroke-miterlimit="2"
       class="c1"
       d="m 439.66,498.63 c -11.847,-5.0159 -22.48,-12.173 -31.604,-21.296 -9.1226,-9.1242 -16.28,-19.759 -21.296,-31.604 -5.1919,-12.274 -7.8135,-25.303 -7.8135,-38.71 0,-13.407 2.6216,-26.438 7.8135,-38.71 5.0159,-11.845 12.173,-22.482 21.296,-31.604 9.1243,-9.1226 19.758,-16.28 31.604,-21.296 12.274,-5.1919 25.303,-7.8135 38.708,-7.8135 13.409,0 26.438,2.6216 38.712,7.8135 11.847,5.0159 22.48,12.173 31.603,21.296 9.126,9.1226 16.283,19.759 21.297,31.604 5.1919,12.272 7.8135,25.303 7.8135,38.71 0,13.407 -2.6216,26.436 -7.8135,38.71 -5.0142,11.845 -12.171,22.48 -21.297,31.604 -9.1226,9.1226 -19.756,16.28 -31.603,21.296 -12.274,5.1919 -25.303,7.8118 -38.712,7.8118 -13.405,0 -26.435,-2.6198 -38.708,-7.8118 z m -3.6299,-133.92 c -11.317,11.315 -17.541,26.335 -17.541,42.34 0,16.003 6.2241,31.023 17.541,42.338 11.317,11.317 26.335,17.541 42.338,17.541 16.006,0 31.025,-6.2241 42.342,-17.541 11.313,-11.315 17.541,-26.335 17.541,-42.338 0,-16.005 -6.2276,-31.025 -17.541,-42.34 -11.317,-11.315 -26.363,-17.541 -42.342,-17.541 -15.976,0 -31.021,6.2258 -42.338,17.541 z"
       style="font-variant-ligatures:normal;fill:#323230;stroke-width:0;stroke-miterlimit:2"
       id="path62" /><path
       stroke-miterlimit="2"
       class="c1"
       d="m 750.76,392.17 -44.81,77.219 H 680.9 l -44.56,-76.79 v 112.83 h -39.82 v -196.57 h 36.138 l 60.89,107.11 60.89,-107.11 h 35.889 v 196.57 h -39.57 v -113.26 z"
       style="font-variant-ligatures:normal;fill:#323230;stroke-width:0;stroke-miterlimit:2"
       id="path65" /><path
       stroke-miterlimit="2"
       class="c1"
       d="M 818.07,505.43 H 945.34 V 468.64 H 818.07 Z m 0,-79.136 H 945.34 V 388.742 H 818.07 Z m 0,-117.44 v 37.552 h 127.27 v -37.552 z"
       style="font-variant-ligatures:normal;fill:#323230;stroke-width:0;stroke-miterlimit:2"
       id="path68" /><path
       style="fill:#a67a42;stroke-width:0.405"
       d="m 191.99,306.06 c -0.483,-0.005 -1.0656,0 -1.2948,0.0108 -0.22901,0.011 -0.61407,0.036 -0.85569,0.0556 -0.24139,0.0196 -0.57579,0.0507 -0.74309,0.0691 -0.16709,0.0182 -0.52108,0.0642 -0.78635,0.10156 -0.26549,0.0376 -0.65055,0.0986 -0.85568,0.13556 -0.20537,0.0369 -0.54044,0.1029 -0.74488,0.14659 -0.20424,0.0437 -0.57219,0.12971 -0.81762,0.19096 -0.24544,0.0615 -0.63998,0.16775 -0.87706,0.23598 -0.23689,0.0685 -0.64424,0.19636 -0.90502,0.28396 -0.26076,0.0876 -0.66991,0.23441 -0.9095,0.32606 -0.23959,0.0917 -0.55506,0.21662 -0.70078,0.27742 -0.14591,0.061 -0.41613,0.17834 -0.60033,0.26076 -0.1842,0.0826 -0.56295,0.26414 -0.84171,0.40375 -0.27855,0.13961 -0.61293,0.31165 -0.74309,0.38258 -0.13016,0.0709 -0.40352,0.22608 -0.60799,0.34497 -0.20424,0.1189 -0.53865,0.32156 -0.74309,0.45036 -0.20424,0.1288 -0.53367,0.34655 -0.73184,0.48345 -0.19816,0.13713 -0.53253,0.37785 -0.74309,0.53505 -0.21055,0.15717 -0.5267,0.40172 -0.70256,0.54359 -0.17586,0.14186 -0.50507,0.41929 -0.73183,0.61653 -0.22653,0.19748 -0.7064,0.65278 -1.0662,1.012 -0.35962,0.35939 -0.80433,0.82551 -0.98788,1.0361 -0.18375,0.21055 -0.47288,0.55506 -0.64265,0.76562 -0.16979,0.21054 -0.42943,0.54492 -0.57668,0.74309 -0.1475,0.19816 -0.42064,0.58818 -0.6071,0.86694 -0.18645,0.27855 -0.45668,0.70414 -0.60033,0.94576 -0.14344,0.24139 -0.35533,0.61135 -0.47041,0.82191 -0.11507,0.21054 -0.30759,0.58546 -0.4276,0.83316 -0.12024,0.2477 -0.28665,0.6073 -0.36974,0.79939 -0.0831,0.19185 -0.20987,0.49653 -0.28193,0.67667 -0.072,0.18038 -0.1887,0.48933 -0.2594,0.6868 -0.0705,0.19749 -0.18307,0.53144 -0.2504,0.74196 -0.0673,0.21055 -0.17654,0.58029 -0.24275,0.82191 -0.0662,0.24139 -0.16168,0.61698 -0.21212,0.8345 -0.0502,0.21753 -0.12677,0.58231 -0.16978,0.81065 -0.043,0.22833 -0.10403,0.58255 -0.13533,0.78679 -0.0315,0.20424 -0.0777,0.55396 -0.10269,0.77688 -0.0252,0.22292 -0.0612,0.6028 -0.0802,0.84442 -0.0191,0.24139 -0.041,0.78364 -0.0484,1.2047 -0.009,0.48483 -0.004,0.95568 0.0131,1.2835 0.0149,0.28485 0.0417,0.67485 0.0597,0.86694 0.018,0.19186 0.0531,0.51115 0.0781,0.70932 0.0252,0.19816 0.0766,0.54764 0.11417,0.77687 0.0376,0.22901 0.10898,0.61337 0.15852,0.8539 0.0498,0.2405 0.13962,0.63569 0.19974,0.8782 0.0601,0.24252 0.16618,0.63841 0.23599,0.87999 0.0696,0.24139 0.18825,0.62645 0.26346,0.85568 0.0752,0.22901 0.20536,0.60394 0.2889,0.83317 0.0838,0.22901 0.22383,0.59559 0.31143,0.81445 0.0878,0.21888 0.24725,0.599 0.35443,0.84443 0.10719,0.24567 0.29972,0.66562 0.42809,0.93316 0.12835,0.26774 0.35128,0.71361 0.49563,0.99079 0.14435,0.27742 0.37921,0.71179 0.52197,0.9658 0.14276,0.25378 0.38123,0.66429 0.52986,0.91198 0.14862,0.2477 0.38641,0.63278 0.52828,0.85569 0.14187,0.22293 0.41432,0.63682 0.60507,0.91963 0.19096,0.28283 0.50034,0.72868 0.68769,0.99079 0.18735,0.26211 0.49767,0.68409 0.68951,0.9381 0.19186,0.25401 0.56745,0.735 0.83451,1.0692 0.26706,0.33417 0.65731,0.81041 0.86718,1.0584 0.20987,0.24792 0.51925,0.6073 0.68769,0.7987 0.16821,0.1914 0.46725,0.52581 0.66453,0.74309 0.19726,0.2173 0.50621,0.55214 0.68635,0.74423 0.18014,0.19208 0.69761,0.72236 1.15,1.1788 0.45238,0.45623 1.091,1.0852 1.4191,1.3972 0.32831,0.3121 0.7386,0.69874 0.91198,0.85949 0.17339,0.16078 0.46725,0.42897 0.65302,0.59648 0.18577,0.16731 0.49989,0.44607 0.69806,0.61949 0.19816,0.17339 0.50216,0.43708 0.67554,0.58616 0.17339,0.14906 0.55845,0.47287 0.85568,0.71988 0.29747,0.2468 0.78882,0.64671 1.0921,0.88878 0.30355,0.24206 0.78992,0.62329 1.0809,0.84734 0.29116,0.22383 0.7825,0.59381 1.0921,0.8219 0.30962,0.22788 0.75549,0.55194 0.99079,0.71945 0.23532,0.16775 0.64063,0.45194 0.90072,0.63139 0.26009,0.17947 0.59649,0.40893 0.74784,0.51002 0.15109,0.10133 0.3184,0.20176 0.37154,0.2236 0.0662,0.0272 0.15695,0.0396 0.28801,0.0396 0.1592,0 0.21211,-0.01 0.31525,-0.0585 0.0682,-0.0322 0.36547,-0.2227 0.66067,-0.42355 0.29522,-0.20086 0.74626,-0.51317 1.0021,-0.69401 0.2558,-0.18082 0.66788,-0.47603 0.91558,-0.65593 0.2477,-0.17992 0.63277,-0.46389 0.85568,-0.6312 0.22293,-0.16731 0.60799,-0.46117 0.85569,-0.65326 0.2477,-0.19208 0.62779,-0.49066 0.84442,-0.66384 0.21685,-0.17294 0.50058,-0.40127 0.63051,-0.5071 0.13015,-0.10606 0.38843,-0.31908 0.57421,-0.47377 0.18577,-0.1547 0.58275,-0.49179 0.88249,-0.74941 0.29949,-0.25761 0.73499,-0.63796 0.96759,-0.84532 0.2326,-0.20738 0.61045,-0.54922 0.83948,-0.75973 0.22901,-0.21055 0.62961,-0.58547 0.88991,-0.83317 0.2603,-0.2477 0.73544,-0.70887 1.0561,-1.0246 0.32043,-0.31593 0.8586,-0.86314 1.1957,-1.216 0.33731,-0.35308 0.74333,-0.78364 0.9025,-0.95702 0.15898,-0.17339 0.44675,-0.49268 0.63949,-0.70931 0.19276,-0.21685 0.49832,-0.56632 0.6789,-0.77687 0.1806,-0.21055 0.51521,-0.61091 0.74334,-0.88947 0.22811,-0.27877 0.57287,-0.70931 0.76586,-0.95701 0.19297,-0.2477 0.49742,-0.64808 0.67667,-0.88946 0.17924,-0.24139 0.44744,-0.61135 0.59584,-0.82191 0.14817,-0.21054 0.37672,-0.53999 0.50779,-0.73183 0.13083,-0.19208 0.37785,-0.567 0.54897,-0.83317 0.17091,-0.26639 0.45935,-0.73252 0.64108,-1.0358 0.18149,-0.30354 0.4265,-0.72394 0.54424,-0.93449 0.11799,-0.21055 0.32403,-0.59066 0.45801,-0.84443 0.13376,-0.254 0.32876,-0.63905 0.43323,-0.85568 0.10426,-0.21685 0.26571,-0.56137 0.35894,-0.76562 0.093,-0.20446 0.25783,-0.58433 0.36637,-0.84442 0.10853,-0.26008 0.26053,-0.64018 0.33822,-0.84443 0.0775,-0.20446 0.20604,-0.55914 0.28575,-0.78813 0.0799,-0.22923 0.20941,-0.62937 0.28823,-0.88946 0.0786,-0.26008 0.18352,-0.62487 0.23284,-0.81064 0.0495,-0.18578 0.127,-0.49496 0.17226,-0.6868 0.0453,-0.19208 0.11236,-0.49609 0.14884,-0.67554 0.0367,-0.1797 0.0962,-0.50395 0.13241,-0.72058 0.0365,-0.21685 0.0865,-0.54606 0.11146,-0.73183 0.025,-0.18578 0.0608,-0.48977 0.0793,-0.67554 0.0187,-0.18578 0.0462,-0.51002 0.0613,-0.72058 0.0149,-0.21054 0.0272,-0.7629 0.0272,-1.2272 0,-0.46454 -0.0124,-1.0318 -0.0277,-1.261 -0.0153,-0.22923 -0.0477,-0.6143 -0.0721,-0.85568 -0.0243,-0.24162 -0.0599,-0.55574 -0.079,-0.69806 -0.0192,-0.14231 -0.0651,-0.44137 -0.10224,-0.66428 -0.0371,-0.22293 -0.10313,-0.58118 -0.14659,-0.79603 -0.0435,-0.21505 -0.1243,-0.57376 -0.17946,-0.79736 -0.0552,-0.22338 -0.15155,-0.58458 -0.21393,-0.80255 -0.0626,-0.21798 -0.18284,-0.60414 -0.26751,-0.85795 -0.0847,-0.25401 -0.22203,-0.63905 -0.30512,-0.85569 -0.0833,-0.21685 -0.22518,-0.56631 -0.31503,-0.77687 -0.0901,-0.21054 -0.24702,-0.56024 -0.34903,-0.77687 -0.102,-0.21685 -0.27674,-0.56631 -0.38843,-0.77687 -0.11147,-0.21054 -0.26684,-0.49584 -0.34498,-0.63411 -0.0784,-0.13804 -0.23013,-0.39542 -0.33754,-0.57194 -0.10741,-0.17632 -0.28058,-0.4517 -0.38484,-0.61204 -0.10425,-0.16032 -0.27179,-0.40961 -0.37244,-0.55396 -0.10066,-0.14434 -0.30467,-0.42468 -0.45352,-0.62285 -0.14862,-0.19815 -0.35174,-0.46161 -0.45125,-0.58546 -0.0993,-0.12385 -0.32561,-0.3943 -0.50285,-0.60102 -0.17722,-0.20672 -0.47243,-0.53594 -0.65594,-0.73184 -0.18352,-0.19568 -0.52038,-0.53727 -0.74852,-0.75909 -0.22811,-0.22158 -0.58705,-0.55461 -0.79761,-0.73993 -0.21054,-0.18533 -0.57534,-0.49135 -0.81064,-0.68004 -0.23532,-0.1887 -0.56453,-0.44449 -0.73184,-0.56858 -0.16731,-0.12408 -0.46028,-0.33349 -0.651,-0.46567 -0.19095,-0.13218 -0.48482,-0.32764 -0.65302,-0.43436 -0.16843,-0.10673 -0.45283,-0.28238 -0.63253,-0.39024 -0.17946,-0.10809 -0.48863,-0.2853 -0.6868,-0.39406 -0.19815,-0.10877 -0.5983,-0.31683 -0.88946,-0.46231 -0.29116,-0.14569 -0.7064,-0.34317 -0.92324,-0.43886 -0.21662,-0.0957 -0.57647,-0.24747 -0.79938,-0.33732 -0.22293,-0.0899 -0.60281,-0.23441 -0.84443,-0.32156 -0.24139,-0.0871 -0.60641,-0.21054 -0.81065,-0.27449 -0.20423,-0.064 -0.52848,-0.16055 -0.72057,-0.2146 -0.19186,-0.0543 -0.53144,-0.14389 -0.75436,-0.19951 -0.22292,-0.0556 -0.57376,-0.13713 -0.77958,-0.18127 -0.20582,-0.0441 -0.57555,-0.11597 -0.82166,-0.15965 -0.2459,-0.0437 -0.66518,-0.10899 -0.93159,-0.14524 -0.26661,-0.0365 -0.70753,-0.0867 -0.97997,-0.11191 -0.27247,-0.0255 -0.65234,-0.0565 -0.84443,-0.0694 -0.19185,-0.0128 -0.74423,-0.0275 -1.2272,-0.0324 z m -0.2912,11.881 c 0.11147,-0.002 0.34971,0.007 0.52918,0.0192 0.17969,0.0128 0.43302,0.0385 0.56295,0.0574 0.13015,0.0187 0.35196,0.0597 0.49313,0.0912 0.14118,0.0313 0.36343,0.0876 0.49406,0.12498 0.1306,0.0374 0.35961,0.11349 0.50892,0.16888 0.14929,0.0554 0.44384,0.18578 0.65436,0.28936 0.21054,0.10358 0.49179,0.25738 0.62532,0.3416 0.1333,0.084 0.34137,0.22563 0.46275,0.31435 0.12115,0.0887 0.34858,0.27404 0.50552,0.41184 0.15695,0.13781 0.38866,0.36412 0.51476,0.50281 0.12632,0.13894 0.30016,0.34363 0.3864,0.4551 0.0865,0.11147 0.22473,0.30399 0.30737,0.42784 0.0827,0.12385 0.19749,0.3067 0.25513,0.40622 0.0579,0.0995 0.17542,0.32741 0.26121,0.50665 0.0858,0.17902 0.20357,0.45733 0.26166,0.61811 0.0581,0.16101 0.14074,0.4195 0.1833,0.57421 0.0426,0.15493 0.10155,0.41343 0.13128,0.57445 0.0297,0.16101 0.0673,0.39902 0.0835,0.52918 0.0178,0.14209 0.029,0.46546 0.0286,0.81065 -8.1e-4,0.42018 -0.012,0.65277 -0.041,0.86694 -0.0221,0.161 -0.0642,0.41273 -0.0939,0.55934 -0.0295,0.14682 -0.0858,0.37988 -0.12475,0.51792 -0.0392,0.13826 -0.11417,0.36794 -0.16663,0.51026 -0.0527,0.14231 -0.14277,0.36411 -0.19996,0.49292 -0.0574,0.12858 -0.16574,0.34543 -0.24072,0.48167 -0.0752,0.13623 -0.21009,0.36029 -0.30039,0.49787 -0.0901,0.13758 -0.254,0.36659 -0.36434,0.50912 -0.11034,0.14231 -0.36276,0.42153 -0.56117,0.62038 -0.19816,0.19861 -0.45643,0.43777 -0.57421,0.53144 -0.11754,0.0934 -0.32538,0.24612 -0.46162,0.33912 -0.13623,0.0928 -0.33732,0.22136 -0.44675,0.28553 -0.10944,0.0642 -0.28688,0.16078 -0.39407,0.21437 -0.10719,0.0538 -0.29116,0.13872 -0.40893,0.18871 -0.11754,0.05 -0.33551,0.13285 -0.48413,0.18397 -0.14862,0.0513 -0.38664,0.12362 -0.52918,0.16077 -0.14231,0.0374 -0.40082,0.0919 -0.57421,0.1216 -0.17338,0.0295 -0.45169,0.0658 -0.61855,0.0804 -0.1878,0.0167 -0.49609,0.0221 -0.81065,0.0144 -0.34453,-0.008 -0.6062,-0.0275 -0.81514,-0.0595 -0.16934,-0.0259 -0.42266,-0.0727 -0.56295,-0.10403 -0.14013,-0.0304 -0.38678,-0.0972 -0.54756,-0.14742 -0.16119,-0.0502 -0.41918,-0.14256 -0.57429,-0.20493 -0.15471,-0.0624 -0.3726,-0.15916 -0.48398,-0.21465 -0.11178,-0.0555 -0.2839,-0.14701 -0.38313,-0.20371 -0.0988,-0.0563 -0.28633,-0.17294 -0.41634,-0.2592 -0.13,-0.0859 -0.34263,-0.23855 -0.47263,-0.33939 -0.1296,-0.10044 -0.4046,-0.34992 -0.61115,-0.55404 -0.20574,-0.20453 -0.45886,-0.4779 -0.56133,-0.60791 -0.10287,-0.13041 -0.27013,-0.36328 -0.37179,-0.51799 -0.10178,-0.15493 -0.24364,-0.38686 -0.31525,-0.51565 -0.0716,-0.12903 -0.18262,-0.35196 -0.2468,-0.4954 -0.0642,-0.14366 -0.1574,-0.37267 -0.20716,-0.50892 -0.0498,-0.13623 -0.1225,-0.36074 -0.16169,-0.499 -0.0389,-0.13804 -0.0955,-0.3711 -0.1252,-0.51791 -0.0297,-0.1466 -0.072,-0.39339 -0.0937,-0.54809 -0.0299,-0.21212 -0.0399,-0.43145 -0.0399,-0.88946 -2.2e-4,-0.45599 0.009,-0.67846 0.039,-0.88946 0.0216,-0.15493 0.0637,-0.40352 0.0939,-0.55283 0.0302,-0.14907 0.0896,-0.39226 0.13218,-0.54043 0.0426,-0.14794 0.12587,-0.40082 0.18509,-0.56181 0.0592,-0.16101 0.19704,-0.47155 0.30602,-0.68996 0.10921,-0.21843 0.29882,-0.5474 0.42153,-0.73184 0.12249,-0.18397 0.31232,-0.44606 0.42176,-0.58231 0.10922,-0.13623 0.33057,-0.37987 0.49204,-0.54156 0.16123,-0.16168 0.42132,-0.39609 0.57805,-0.52108 0.1565,-0.12474 0.3997,-0.30354 0.54044,-0.39699 0.14051,-0.0935 0.38731,-0.24162 0.54833,-0.32921 0.161,-0.0876 0.4346,-0.21932 0.60798,-0.29274 0.17339,-0.0734 0.42671,-0.17001 0.56295,-0.21482 0.13624,-0.0448 0.3693,-0.11146 0.51792,-0.14816 0.14861,-0.0367 0.3828,-0.0865 0.52062,-0.11057 0.13759,-0.0241 0.36052,-0.0545 0.4954,-0.0675 0.13466,-0.0131 0.29566,-0.027 0.35759,-0.0306 0.0619,-0.004 0.20378,-0.009 0.31525,-0.0108 z"
       id="icon" /></g></svg>