<?xml version="1.0" encoding="UTF-8"?>
<svg width="170px" height="62px" viewBox="0 0 170 62" version="1.1" xmlns="http://www.w3.org/2000/svg" xmlns:xlink="http://www.w3.org/1999/xlink">
    <title>fidly (1)</title>
    <defs>
        <path d="M21.3117078,38.566517 C14.5791635,27.858694 7.81877054,17.1497306 1.05724094,6.44133741 L1.05724094,6.44133741 C-0.265852351,4.2768507 -0.352239885,2.77550888 0.82706363,1.33232767 L0.82706363,1.33232767 C2.17971055,-0.284194943 3.84835399,-0.197524242 5.68977249,0.379520162 L5.68977249,0.379520162 C11.9903791,2.40088618 18.3194027,4.2768507 24.6200093,6.29707631 L24.6200093,6.29707631 C25.281556,6.49949802 25.9431026,6.67283942 26.5762323,6.73042982 L26.5762323,6.73042982 C26.5762323,6.73042982 34.4306779,8.31730193 43.0324893,25.3480947 L43.0324893,25.3480947 C40.2709299,29.7637388 37.4798169,34.151443 34.7182575,38.5955973 L34.7182575,38.5955973 C33.1644185,41.0782567 31.0933911,42.5208677 27.6117461,42.5505182 L27.6117461,42.5505182 C27.5634373,42.5510884 27.5151284,42.5516586 27.467388,42.5516586 L27.467388,42.5516586 C24.9433943,42.5516586 22.8638417,41.0600102 21.3117078,38.566517" id="path-1"></path>
        <linearGradient x1="30.2692364%" y1="48.2853059%" x2="25.1940127%" y2="54.0769009%" id="linearGradient-3">
            <stop stop-color="#007AF5" offset="0%"></stop>
            <stop stop-color="#02CEE8" offset="100%"></stop>
        </linearGradient>
        <path d="M0,6.86935804 C0.805904764,6.98396864 1.64022648,6.95545854 2.4455629,6.86935804 L2.4455629,6.86935804 C3.1355265,6.78211714 3.82605844,6.63842624 4.54557567,6.40749444 L4.54557567,6.40749444 C11.0763596,4.32910822 17.6645458,2.3373927 24.2243151,0.287516583 L24.2243151,0.287516583 C26.0361799,-0.288957619 27.6474211,-0.0585960199 28.7983077,1.5294165 L28.7983077,1.5294165 C29.9491942,3.05869821 29.7769875,4.64671072 28.7698907,6.17656263 L28.7698907,6.17656263 C27.533185,8.08160745 26.2669256,9.95700176 25.0580684,11.8911269 L25.0580684,11.8911269 C22.3539113,16.1625099 19.678171,20.4065233 16.9740139,24.6779063 L16.9740139,24.6779063 C16.8018071,24.9379184 16.6284637,25.2264406 16.456257,25.4870229 L16.456257,25.4870229 C7.85444558,8.45623015 0,6.86935804 0,6.86935804" id="path-4"></path>
        <linearGradient x1="25.4303818%" y1="49.3732721%" x2="38.5617036%" y2="48.6234766%" id="linearGradient-6">
            <stop stop-color="#007AF5" offset="0%"></stop>
            <stop stop-color="#02CEE8" offset="100%"></stop>
        </linearGradient>
    </defs>
    <g id="Page-1" stroke="none" stroke-width="1" fill="none" fill-rule="evenodd">
        <g id="fidly-(1)" transform="translate(-0.000000, -0.000000)">
            <g id="Logo" transform="translate(0.000000, 0.000000)">
                <g id="g10" transform="translate(85.000000, 31.000000) scale(-1, 1) rotate(-180.000000) translate(-85.000000, -31.000000) translate(0.000000, 0.000000)">
                    <g id="g16-Clipped" transform="translate(0.000000, 11.980976)">
                        <mask id="mask-2" fill="white">
                            <use xlink:href="#path-1"></use>
                        </mask>
                        <g id="path-1"></g>
                        <g id="g16" mask="url(#mask-2)">
                            <g transform="translate(-71.293456, -83.617504)" id="g28">
                                <polygon id="path36" fill="url(#linearGradient-3)" fill-rule="nonzero" points="0 0 312.586474 0 312.586474 205.272713 0 205.272713"></polygon>
                            </g>
                        </g>
                    </g>
                    <g id="g40-Clipped" transform="translate(26.576232, 11.842048)">
                        <mask id="mask-5" fill="white">
                            <use xlink:href="#path-4"></use>
                        </mask>
                        <g id="path-4"></g>
                        <g id="g40" mask="url(#mask-5)">
                            <g transform="translate(-97.869688, -83.478576)" id="g52">
                                <polygon id="path60" fill="url(#linearGradient-6)" fill-rule="nonzero" points="0 0 312.586474 0 312.586474 205.272713 0 205.272713"></polygon>
                            </g>
                        </g>
                    </g>
                    <g id="g62" transform="translate(73.385773, 0.000000)" fill="#04013A" fill-rule="nonzero">
                        <g id="g64">
                            <polygon id="path70" points="0 11.6580076 8.31366353 11.6580076 8.31366353 60.8499026 0 60.8499026"></polygon>
                            <polygon id="path72" points="22.2553044 0 27.0998264 11.7239229 13.2869143 46.1053917 22.3865908 46.1053917 31.2242629 21.4760874 40.0943303 46.1053917 49.3247247 46.1053917 31.1583356 0"></polygon>
                            <polygon id="path74" points="52.1353318 11.6579505 52.1353318 17.3719446 69.2542721 38.6507421 52.6587721 38.6507421 52.6587721 46.1055628 80.15331 46.1055628 80.15331 40.5232854 62.969579 19.0796995 80.7756412 19.0796995 80.7756412 11.6579505"></polygon>
                            <path d="M87.154224,46.1056198 L95.5008512,46.1056198 L95.5008512,11.6580076 L87.154224,11.6580076 L87.154224,46.1056198 Z M86.1397388,56.9434488 C86.1397388,59.4711542 88.2340682,62 91.3769831,62 C94.5187613,62 96.6142274,59.4711542 96.6142274,56.9434488 C96.6142274,54.3803909 94.5187613,51.9507603 91.3769831,51.9507603 C88.2664635,51.9507603 86.1397388,54.4128925 86.1397388,56.9434488" id="path76"></path>
                        </g>
                    </g>
                </g>
            </g>
        </g>
    </g>
</svg>